HIERARCHY
ROOT Pelvis
{
	OFFSET 0.000000 0.941512 0.000000
	CHANNELS 6 Xposition Yposition Zposition Zrotation Yrotation Xrotation 
	JOINT Pelvis_L_Hip
	{
		OFFSET 0.000000 0.000000 0.000000
		CHANNELS 3 Zrotation Yrotation Xrotation
		JOINT L_Hip
		{
			OFFSET 0.062321 -0.080322 -0.016990
			CHANNELS 3 Zrotation Yrotation Xrotation
			JOINT L_Knee
			{
				OFFSET 0.093051 -0.381305 -0.029784
				CHANNELS 3 Zrotation Yrotation Xrotation
				JOINT L_Ankle
				{
					OFFSET -0.010371 -0.431000 -0.033614
					CHANNELS 3 Zrotation Yrotation Xrotation
					End Site #name: L_Foot
					{
						OFFSET 0.069299 -0.038670 0.119418
					}
				}
			}
		}
	}
	JOINT Pelvis_R_Hip
	{
		OFFSET 0.000000 0.000000 0.000000
		CHANNELS 3 Zrotation Yrotation Xrotation
		JOINT R_Hip
		{
			OFFSET -0.055334 -0.094904 -0.002373
			CHANNELS 3 Zrotation Yrotation Xrotation
			JOINT R_Knee
			{
				OFFSET -0.064207 -0.384370 -0.019592
				CHANNELS 3 Zrotation Yrotation Xrotation
				JOINT R_Ankle
				{
					OFFSET 0.025418 -0.419734 -0.065953
					CHANNELS 3 Zrotation Yrotation Xrotation
					End Site #name: R_Foot
					{
						OFFSET -0.057233 -0.039888 0.132134
					}
				}
			}
		}
	}
	JOINT Pelvis_Spine1
	{
		OFFSET 0.000000 0.000000 0.000000
		CHANNELS 3 Zrotation Yrotation Xrotation
		JOINT Spine1
		{
			OFFSET -0.005562 0.124093 -0.043360
			CHANNELS 3 Zrotation Yrotation Xrotation
			JOINT Spine2
			{
				OFFSET 0.012244 0.139499 0.029894
				CHANNELS 3 Zrotation Yrotation Xrotation
				JOINT Spine3
				{
					OFFSET -0.002556 0.056561 0.009225
					CHANNELS 3 Zrotation Yrotation Xrotation
					JOINT Spine3_Neck
					{
						OFFSET 0.000000 0.000000 0.000000
						CHANNELS 3 Zrotation Yrotation Xrotation
						JOINT Neck
						{
							OFFSET -0.005205 0.217920 -0.024551
							CHANNELS 3 Zrotation Yrotation Xrotation
							End Site #name: Head
							{
								OFFSET 0.002365 0.091850 0.046637
							}
						}
					}
					JOINT Spine3_L_Collar
					{
						OFFSET 0.000000 0.000000 0.000000
						CHANNELS 3 Zrotation Yrotation Xrotation
						JOINT L_Collar
						{
							OFFSET 0.072225 0.116603 -0.009480
							CHANNELS 3 Zrotation Yrotation Xrotation
							JOINT L_Shoulder
							{
								OFFSET 0.115937 -0.058643 -0.021018
								CHANNELS 3 Zrotation Yrotation Xrotation
								JOINT L_Elbow
								{
									OFFSET 0.021994 -0.254722 -0.024492
									CHANNELS 3 Zrotation Yrotation Xrotation
									End Site #name: L_Wrist
									{
										OFFSET 0.048810 -0.240214 0.103329
									}
								}
							}
						}
					}
					JOINT Spine3_R_Collar
					{
						OFFSET 0.000000 0.000000 0.000000
						CHANNELS 3 Zrotation Yrotation Xrotation
						JOINT R_Collar
						{
							OFFSET -0.073372 0.120704 -0.024611
							CHANNELS 3 Zrotation Yrotation Xrotation
							JOINT R_Shoulder
							{
								OFFSET -0.108089 -0.054969 -0.020504
								CHANNELS 3 Zrotation Yrotation Xrotation
								JOINT R_Elbow
								{
									OFFSET -0.033684 -0.260739 0.009889
									CHANNELS 3 Zrotation Yrotation Xrotation
									End Site #name: R_Wrist
									{
										OFFSET -0.067980 -0.232763 0.118463
									}
								}
							}
						}
					}
				}
			}
		}
	}
}
MOTION
Frames: 17
Frame Time: 0.041667
-0.004517 0.953590 0.003435 -1.671771 0.494156 8.361902 0.000000 0.000000 0.000000 -6.587594 -1.491174 -7.015762 8.249372 -0.387120 -2.678708 -8.842553 -16.498482 5.634425 0.000000 0.000000 0.000000 6.626999 0.884072 -5.821928 -5.079106 0.139147 -6.286825 3.023224 2.883447 4.710766 0.000000 0.000000 0.000000 4.209760 1.740795 -21.737612 -9.275875 5.549144 29.435522 6.782329 5.565172 -27.950416 0.000000 0.000000 0.000000 2.390788 -1.686475 8.804624 0.000000 0.000000 0.000000 34.690710 -19.276583 -10.511507 -25.013667 -9.506589 -32.995086 10.563026 -14.727718 -92.281696 0.000000 0.000000 0.000000 -36.705552 20.589023 -12.727350 23.918242 8.899203 -18.431384 -20.097983 10.938654 -97.975766 
-0.004412 0.953269 0.003998 -1.727779 0.486926 8.821909 0.000000 0.000000 0.000000 -6.490625 -1.596718 -7.379256 8.199685 -0.367300 -2.856822 -8.709278 -16.605208 5.397368 0.000000 0.000000 0.000000 6.630111 0.972327 -6.232121 -4.907803 0.102558 -6.463812 2.786738 2.507677 4.466643 0.000000 0.000000 0.000000 4.180305 1.785928 -22.112279 -9.473501 5.454622 28.205874 6.741617 5.600084 -27.602539 0.000000 0.000000 0.000000 2.990988 -2.100999 9.804732 0.000000 0.000000 0.000000 32.601017 -16.539890 -7.845665 -23.499659 -9.273276 -33.438928 10.554990 -14.900854 -92.253581 0.000000 0.000000 0.000000 -34.243381 18.228060 -10.294878 22.626832 8.694018 -18.826537 -20.445529 9.871231 -97.921794 
-0.004150 0.953118 0.004587 -1.783821 0.418654 9.215081 0.000000 0.000000 0.000000 -6.455436 -1.679994 -7.671574 8.207991 -0.357331 -2.989100 -8.485143 -16.514121 5.126471 0.000000 0.000000 0.000000 6.643258 1.043894 -6.567537 -4.842695 0.078668 -6.630199 2.730503 2.430374 4.395644 0.000000 0.000000 0.000000 4.065815 1.848027 -22.601876 -9.418926 5.329943 27.473070 6.782241 5.730981 -27.377554 0.000000 0.000000 0.000000 2.897270 -2.095901 10.356337 0.000000 0.000000 0.000000 32.130900 -15.199083 -6.556761 -23.050099 -9.073675 -33.208236 9.460436 -18.137405 -92.630299 0.000000 0.000000 0.000000 -33.012462 17.082475 -9.201573 22.095418 8.514640 -18.746948 -20.087117 11.755500 -98.438100 
-0.003837 0.952769 0.005112 -1.853551 0.335671 9.500158 0.000000 0.000000 0.000000 -6.418081 -1.732481 -7.856560 8.243650 -0.347611 -3.103988 -8.361189 -16.313339 5.040307 0.000000 0.000000 0.000000 6.700980 1.097275 -6.819231 -4.887824 0.076592 -6.689560 2.805857 2.585030 4.442109 0.000000 0.000000 0.000000 3.893485 1.886496 -22.882899 -9.458804 5.337781 27.383980 7.147203 5.985752 -27.971164 0.000000 0.000000 0.000000 2.431563 -1.861725 10.827938 0.000000 0.000000 0.000000 33.550469 -17.379569 -8.595982 -23.692727 -8.715966 -31.580158 6.707884 -25.381591 -92.718503 0.000000 0.000000 0.000000 -34.895282 19.205451 -11.292942 22.218899 8.030126 -17.301171 -18.500057 19.020157 -99.505957 
-0.003712 0.951978 0.005489 -1.823084 0.262101 9.608090 0.000000 0.000000 0.000000 -6.450719 -1.724950 -7.837427 8.242109 -0.332329 -3.263815 -8.499116 -16.146272 5.316615 0.000000 0.000000 0.000000 6.712378 1.107399 -6.870950 -5.112435 0.097088 -6.708662 3.060669 2.915038 4.752785 0.000000 0.000000 0.000000 3.848420 1.913714 -23.100918 -9.456940 5.394858 27.729332 7.113042 5.878943 -28.370661 0.000000 0.000000 0.000000 2.252681 -1.757239 10.932055 0.000000 0.000000 0.000000 34.946085 -18.756557 -9.965120 -25.634374 -8.367189 -29.213126 8.540838 -22.477799 -95.278813 0.000000 0.000000 0.000000 -36.659860 20.410201 -12.525831 23.728119 8.043753 -16.275608 -19.561236 16.160424 -100.991434 
-0.003599 0.951326 0.006106 -1.831415 0.183560 9.597340 0.000000 0.000000 0.000000 -6.441420 -1.708636 -7.780123 8.186865 -0.329029 -3.272776 -8.388293 -16.154881 5.156435 0.000000 0.000000 0.000000 6.686774 1.096631 -6.823953 -4.992113 0.077403 -6.780363 2.898534 2.665723 4.574857 0.000000 0.000000 0.000000 3.867948 1.939970 -23.319075 -9.374103 5.347603 27.638230 6.739973 5.734786 -28.150978 0.000000 0.000000 0.000000 2.776157 -2.063410 11.006638 0.000000 0.000000 0.000000 33.039331 -17.007647 -8.294676 -24.131684 -8.301671 -29.974394 8.436217 -22.788493 -95.099568 0.000000 0.000000 0.000000 -34.599920 19.004631 -11.038186 22.632404 7.735940 -16.204936 -19.839262 15.269032 -100.979968 
-0.003456 0.951406 0.006910 -1.849208 0.113811 9.663793 0.000000 0.000000 0.000000 -6.437831 -1.712760 -7.795568 8.153565 -0.334360 -3.199410 -8.156772 -16.128777 4.835111 0.000000 0.000000 0.000000 6.683996 1.099322 -6.840445 -4.939783 0.068806 -6.814156 2.795901 2.561668 4.424292 0.000000 0.000000 0.000000 3.803897 1.964381 -23.507990 -9.298027 5.265150 27.250309 6.704608 5.749306 -27.868937 0.000000 0.000000 0.000000 2.852999 -2.127499 11.217690 0.000000 0.000000 0.000000 31.919592 -15.507111 -6.902585 -23.135092 -8.247664 -30.515326 8.506822 -22.713921 -95.143297 0.000000 0.000000 0.000000 -32.849097 17.577847 -9.639653 21.763575 7.525407 -16.246033 -19.958442 15.017468 -101.032109 
-0.003290 0.950851 0.007887 -1.887831 -0.033487 9.830516 0.000000 0.000000 0.000000 -6.426943 -1.719991 -7.824309 8.174018 -0.325515 -3.311513 -8.062839 -15.983795 4.771836 0.000000 0.000000 0.000000 6.697298 1.111821 -6.906983 -4.977692 0.057766 -6.952225 2.937846 2.846930 4.517744 0.000000 0.000000 0.000000 3.681399 2.016373 -23.916960 -9.178509 5.270967 27.575535 6.934776 5.829394 -28.144183 0.000000 0.000000 0.000000 2.450206 -1.920541 11.694685 0.000000 0.000000 0.000000 32.992258 -17.139594 -8.448202 -23.052780 -7.974576 -29.710506 7.834792 -25.045304 -95.591395 0.000000 0.000000 0.000000 -33.894756 18.871576 -10.876170 21.912967 7.286838 -15.475618 -19.275209 18.767463 -101.776894 
-0.003263 0.950755 0.009073 -1.845707 -0.137360 9.924941 0.000000 0.000000 0.000000 -6.505785 -1.694705 -7.748509 8.180074 -0.318160 -3.395474 -7.961994 -15.782834 4.719769 0.000000 0.000000 0.000000 6.677191 1.099350 -6.858763 -5.142102 0.067973 -7.001662 3.185421 3.213257 4.779311 0.000000 0.000000 0.000000 3.347658 2.015527 -23.852991 -9.600226 5.420578 27.329204 7.654414 6.152128 -28.521443 0.000000 0.000000 0.000000 2.432575 -1.937730 12.132512 0.000000 0.000000 0.000000 34.469360 -18.971570 -10.232878 -24.085215 -7.771673 -28.390806 7.636278 -26.345827 -96.457320 0.000000 0.000000 0.000000 -35.804114 20.329211 -12.367086 22.758541 7.164051 -14.560868 -19.278100 20.208790 -103.015995 
-0.003275 0.949752 0.010095 -1.849548 -0.285124 9.855933 0.000000 0.000000 0.000000 -6.512034 -1.636419 -7.548465 8.156424 -0.308787 -3.486990 -7.988921 -15.829382 4.743654 0.000000 0.000000 0.000000 6.661251 1.062417 -6.696368 -5.102268 0.050596 -7.129025 3.201108 3.272905 4.761972 0.000000 0.000000 0.000000 3.376170 2.069653 -24.309872 -9.275346 5.422446 28.202159 7.156516 5.891261 -28.449085 0.000000 0.000000 0.000000 2.872932 -2.171300 11.886171 0.000000 0.000000 0.000000 33.596416 -18.160990 -9.471946 -23.214654 -7.677831 -28.645995 8.445048 -24.834649 -97.182896 0.000000 0.000000 0.000000 -34.657114 19.771786 -11.739458 22.465384 7.169915 -14.775414 -19.892552 17.972332 -103.395488 
-0.002881 0.950137 0.011475 -1.837710 -0.444153 9.486859 0.000000 0.000000 0.000000 -6.592154 -1.500550 -7.083437 8.128417 -0.321399 -3.342311 -7.776454 -15.813602 4.444169 0.000000 0.000000 0.000000 6.594520 0.972406 -6.283803 -5.031362 0.057715 -6.987222 3.105665 3.272615 4.550868 0.000000 0.000000 0.000000 3.485456 2.067140 -24.280548 -9.049228 5.383230 28.529862 6.824299 5.778818 -28.082172 0.000000 0.000000 0.000000 3.052581 -2.260481 11.688257 0.000000 0.000000 0.000000 32.550442 -16.655040 -8.045756 -22.177133 -7.688482 -29.408976 8.740042 -24.077205 -97.171635 0.000000 0.000000 0.000000 -33.122341 18.680694 -10.634259 21.569908 7.061048 -15.095474 -20.300342 16.291304 -103.367941 
-0.002296 0.950520 0.012676 -1.806772 -0.637543 8.674367 0.000000 0.000000 0.000000 -6.764792 -1.220860 -6.135337 8.189066 -0.332910 -3.261093 -7.646040 -15.835307 4.249232 0.000000 0.000000 0.000000 6.532905 0.779649 -5.396584 -5.097552 0.076671 -6.863643 3.239977 3.690744 4.533892 0.000000 0.000000 0.000000 3.585372 1.993816 -23.640416 -8.889833 5.481829 29.581270 6.911660 5.795768 -28.206993 0.000000 0.000000 0.000000 2.556623 -1.932722 11.281881 0.000000 0.000000 0.000000 33.116631 -17.400968 -8.775688 -21.585930 -7.423967 -28.964791 8.405493 -25.502868 -97.507049 0.000000 0.000000 0.000000 -33.761159 19.346000 -11.265694 21.403182 6.882886 -14.706110 -20.126236 17.943796 -104.008677 
-0.001504 0.951519 0.013449 -1.741721 -0.758817 7.273398 0.000000 0.000000 0.000000 -6.973484 -0.777126 -4.642052 8.237148 -0.355883 -3.048573 -7.601204 -15.892957 4.157590 0.000000 0.000000 0.000000 6.482022 0.469499 -3.956685 -5.309782 0.135658 -6.500817 3.452554 4.200619 4.623145 0.000000 0.000000 0.000000 3.774063 1.773964 -21.799187 -8.540382 5.437401 30.307836 6.710120 5.549546 -28.560888 0.000000 0.000000 0.000000 1.940305 -1.518950 10.594479 0.000000 0.000000 0.000000 34.683870 -19.550680 -10.940758 -21.682371 -6.822117 -26.942190 7.524831 -28.648502 -97.918747 0.000000 0.000000 0.000000 -35.457786 21.289711 -13.215091 21.468119 6.584257 -13.836213 -19.509894 21.837879 -104.684104 
-0.000998 0.951616 0.013169 -1.655588 -0.902841 6.046700 0.000000 0.000000 0.000000 -7.116912 -0.430875 -3.482061 8.224694 -0.389683 -2.692994 -7.678141 -16.120033 4.169079 0.000000 0.000000 0.000000 6.419712 0.222231 -2.794559 -5.468572 0.188497 -6.151054 3.532116 4.506297 4.573277 0.000000 0.000000 0.000000 3.837876 1.666881 -20.889717 -8.413589 5.709301 32.470425 6.791607 5.427022 -28.930736 0.000000 0.000000 0.000000 1.844512 -1.380255 9.398717 0.000000 0.000000 0.000000 34.477943 -20.503987 -11.953151 -21.085411 -6.336811 -25.661492 9.125194 -25.896577 -99.812874 0.000000 0.000000 0.000000 -35.414829 21.581318 -13.451806 21.471395 6.323443 -13.074884 -20.364956 19.213056 -105.689982 
-0.000129 0.952047 0.013077 -1.620811 -1.084638 5.179299 0.000000 0.000000 0.000000 -7.303609 -0.211111 -2.767083 8.290491 -0.440600 -2.211518 -7.461344 -16.080800 3.872985 0.000000 0.000000 0.000000 6.393622 0.082821 -2.130236 -5.579612 0.254256 -5.647341 3.390162 4.367199 4.365294 0.000000 0.000000 0.000000 4.008619 1.606150 -20.412599 -8.396423 5.924974 33.849767 6.917955 5.345812 -28.610107 0.000000 0.000000 0.000000 1.911830 -1.368361 8.684567 0.000000 0.000000 0.000000 33.636380 -19.861797 -11.343098 -20.608899 -6.381003 -26.127995 9.819059 -23.658859 -99.716542 0.000000 0.000000 0.000000 -34.368191 20.751512 -12.535486 20.900534 6.273061 -13.313893 -20.851247 16.378253 -105.272243 
0.000894 0.952441 0.012571 -1.602388 -1.330236 4.785133 0.000000 0.000000 0.000000 -7.450595 -0.108731 -2.448045 8.298566 -0.462422 -2.001269 -7.304209 -15.914625 3.723465 0.000000 0.000000 0.000000 6.308958 0.045958 -1.933836 -5.568087 0.283900 -5.357365 3.319772 4.295506 4.255663 0.000000 0.000000 0.000000 4.143413 1.567618 -20.125548 -8.093726 5.951321 34.861865 6.786253 5.226281 -28.405839 0.000000 0.000000 0.000000 1.726877 -1.228023 8.106606 0.000000 0.000000 0.000000 32.697727 -19.564690 -11.084329 -19.735149 -6.304080 -26.437641 9.138560 -25.358926 -99.152715 0.000000 0.000000 0.000000 -33.283828 20.263056 -11.984805 20.170582 5.990478 -12.978994 -20.708426 17.450537 -105.404372 
0.001965 0.953008 0.011653 -1.594228 -1.533177 4.741342 0.000000 0.000000 0.000000 -7.577682 -0.096451 -2.430769 8.320153 -0.470427 -1.945616 -7.162575 -15.588658 3.668114 0.000000 0.000000 0.000000 6.212726 0.081370 -2.074575 -5.625950 0.317637 -5.100587 3.460824 4.551455 4.363429 0.000000 0.000000 0.000000 4.360113 1.480694 -19.505459 -7.638145 5.734912 34.823578 6.470032 4.905152 -28.417391 0.000000 0.000000 0.000000 1.124271 -0.886268 8.008513 0.000000 0.000000 0.000000 33.828662 -21.108357 -12.702663 -20.163569 -5.862327 -24.685473 7.291654 -30.110861 -98.280052 0.000000 0.000000 0.000000 -34.349438 21.635339 -13.325625 19.932783 5.546441 -11.861414 -19.601223 22.978188 -105.371365 
